<svg xmlns="http://www.w3.org/2000/svg" xmlns:xlink="http://www.w3.org/1999/xlink" width="500" zoomAndPan="magnify" viewBox="0 0 375 374.999991" height="500" preserveAspectRatio="xMidYMid meet" version="1.0"><defs><clipPath id="e4272c9c01"><path d="M 15.074219 71.902344 L 146 71.902344 L 146 263 L 15.074219 263 Z M 15.074219 71.902344 " clip-rule="nonzero"/></clipPath><clipPath id="034916315f"><path d="M 216 71.902344 L 347 71.902344 L 347 271 L 216 271 Z M 216 71.902344 " clip-rule="nonzero"/></clipPath><clipPath id="113597b6c3"><path d="M 24 255 L 360.074219 255 L 360.074219 301 L 24 301 Z M 24 255 " clip-rule="nonzero"/></clipPath><clipPath id="43b53c7b1e"><path d="M 73 71.902344 L 289 71.902344 L 289 255 L 73 255 Z M 73 71.902344 " clip-rule="nonzero"/></clipPath></defs><g clip-path="url(#e4272c9c01)"><path fill="#dc1f26" d="M 48.675781 262.445312 L 65.097656 258.726562 L 65.097656 156.625 L 53.503906 156.625 L 122.738281 93.703125 L 132.660156 102.984375 L 145.242188 91.558594 L 122.738281 71.914062 L 15.074219 165.90625 L 48.675781 165.90625 Z M 48.675781 262.445312 " fill-opacity="1" fill-rule="nonzero"/></g><g clip-path="url(#034916315f)"><path fill="#2576a7" d="M 238.632812 71.914062 L 216.132812 91.558594 L 228.730469 102.984375 L 238.632812 93.703125 L 307.867188 156.625 L 296.292969 156.625 L 296.292969 266.28125 L 312.695312 270.761719 L 312.695312 165.90625 L 346.296875 165.90625 Z M 238.632812 71.914062 " fill-opacity="1" fill-rule="nonzero"/></g><g clip-path="url(#113597b6c3)"><path fill="#234a6e" d="M 275.425781 266.984375 C 227.992188 256.390625 165.976562 253.46875 117.589844 257.585938 C 89.460938 260.148438 61.144531 264.609375 34.121094 273.625 C 26.347656 276.039062 22.375 285.488281 26.003906 293.101562 C 29.234375 300.03125 37.199219 302.894531 43.8125 299.515625 C 55.804688 294.277344 68.289062 290.425781 80.871094 286.914062 C 113.21875 278.125 146.667969 273.398438 180.117188 272.03125 C 235.289062 269.925781 290.460938 277.574219 343.464844 293.765625 L 360.074219 299.726562 C 360.058594 299.726562 320.070312 276.949219 275.425781 266.984375 Z M 275.425781 266.984375 " fill-opacity="1" fill-rule="nonzero"/></g><g clip-path="url(#43b53c7b1e)"><path fill="#234a6e" d="M 106.625 252.898438 C 112.34375 252.253906 118.082031 251.703125 123.804688 251.230469 L 123.804688 156.625 L 113.503906 156.625 L 180.707031 93.703125 L 249.027344 156.625 L 238.328125 156.625 L 238.328125 252.726562 C 243.878906 253.277344 249.351562 253.886719 254.75 254.570312 L 254.75 165.90625 L 288.351562 165.90625 L 180.6875 71.914062 L 73.023438 165.90625 L 106.625 165.90625 Z M 106.625 252.898438 " fill-opacity="1" fill-rule="nonzero"/></g><path fill="#dc1f26" d="M 175.746094 243.636719 C 175.746094 243.636719 128.554688 244.640625 132.050781 179.953125 C 132.050781 179.953125 138.113281 193.980469 142.125 194.039062 C 139.996094 194.019531 141.328125 181.09375 141.535156 180.144531 C 144.40625 166.6875 156.589844 158.144531 164.664062 147.703125 C 173.140625 136.753906 181.921875 122.894531 183.804688 108.792969 C 185.609375 120.257812 191.5 135.554688 194.3125 144.363281 C 199.445312 160.402344 192.433594 184.832031 186.085938 200.265625 C 183.328125 206.964844 180.382812 213.609375 177.246094 220.082031 C 177.246094 220.082031 173.730469 227.351562 174.054688 236.289062 C 174.054688 236.289062 165.347656 227.597656 169.703125 201.515625 C 169.703125 201.515625 174.054688 180.789062 172.382812 173.101562 C 172.382812 173.101562 154.175781 203.472656 157.558594 213.929688 C 157.558594 213.929688 146.078125 206.128906 146.078125 201.441406 C 146.097656 201.441406 141.707031 226.058594 175.746094 243.636719 Z M 175.746094 243.636719 " fill-opacity="1" fill-rule="nonzero"/><path fill="#2576a7" d="M 185.78125 213.304688 C 185.78125 213.304688 205.832031 169.019531 197.808594 143.738281 C 197.808594 143.738281 239.601562 176.765625 225.804688 219.664062 C 225.804688 219.664062 212.917969 249.671875 180.441406 243.636719 C 180.441406 243.636719 175.746094 229 185.78125 213.304688 Z M 185.78125 213.304688 " fill-opacity="1" fill-rule="nonzero"/><path fill="#ffffff" d="M 180.421875 133.296875 C 177.589844 143.09375 171.714844 151.84375 165.558594 159.890625 C 162.859375 163.308594 159.972656 166.648438 157.007812 169.800781 C 152.976562 173.898438 149.9375 178.511719 149.652344 184.375 C 149.386719 187.203125 149.480469 190.089844 149.613281 192.992188 C 148.949219 190.164062 148.492188 187.28125 148.414062 184.320312 C 148.359375 181.378906 148.757812 178.300781 150.089844 175.511719 C 151.324219 172.683594 153.320312 170.386719 155.183594 168.167969 C 158.03125 164.882812 160.789062 161.617188 163.523438 158.257812 C 169.777344 150.398438 175.878906 142.277344 180.421875 133.296875 Z M 180.421875 133.296875 " fill-opacity="1" fill-rule="nonzero"/><path fill="#ffffff" d="M 192.222656 234.03125 C 191.578125 234.03125 191.0625 233.519531 191.0625 232.875 L 191.0625 199.960938 C 191.0625 199.316406 191.578125 198.800781 192.222656 198.800781 C 192.867188 198.800781 193.382812 199.316406 193.382812 199.960938 L 193.382812 232.875 C 193.382812 233.519531 192.867188 234.03125 192.222656 234.03125 Z M 192.222656 234.03125 " fill-opacity="1" fill-rule="nonzero"/><path fill="#ffffff" d="M 191.558594 225.148438 C 192.015625 224.691406 192.734375 224.691406 193.191406 225.148438 L 198.019531 229.96875 C 198.476562 230.425781 198.476562 231.148438 198.019531 231.601562 C 197.5625 232.058594 196.839844 232.058594 196.386719 231.601562 L 191.558594 226.78125 C 191.121094 226.34375 191.121094 225.605469 191.558594 225.148438 Z M 191.558594 225.148438 " fill-opacity="1" fill-rule="nonzero"/><path fill="#ffffff" d="M 193.003906 225.148438 C 192.546875 224.691406 191.824219 224.691406 191.367188 225.148438 L 186.539062 229.96875 C 186.085938 230.425781 186.085938 231.148438 186.539062 231.601562 C 186.996094 232.058594 187.71875 232.058594 188.175781 231.601562 L 193.003906 226.78125 C 193.457031 226.34375 193.457031 225.605469 193.003906 225.148438 Z M 193.003906 225.148438 " fill-opacity="1" fill-rule="nonzero"/><path fill="#ffffff" d="M 191.558594 219.378906 C 192.015625 218.921875 192.734375 218.921875 193.191406 219.378906 L 198.019531 224.199219 C 198.476562 224.65625 198.476562 225.375 198.019531 225.832031 C 197.5625 226.289062 196.839844 226.289062 196.386719 225.832031 L 191.558594 221.011719 C 191.121094 220.554688 191.121094 219.816406 191.558594 219.378906 Z M 191.558594 219.378906 " fill-opacity="1" fill-rule="nonzero"/><path fill="#ffffff" d="M 193.003906 219.378906 C 192.546875 218.921875 191.824219 218.921875 191.367188 219.378906 L 186.539062 224.199219 C 186.085938 224.65625 186.085938 225.375 186.539062 225.832031 C 186.996094 226.289062 187.71875 226.289062 188.175781 225.832031 L 193.003906 221.011719 C 193.457031 220.554688 193.457031 219.816406 193.003906 219.378906 Z M 193.003906 219.378906 " fill-opacity="1" fill-rule="nonzero"/><path fill="#ffffff" d="M 226.585938 199.617188 C 226.585938 200.265625 226.070312 200.777344 225.425781 200.777344 L 192.46875 200.777344 C 191.824219 200.777344 191.3125 200.265625 191.3125 199.617188 C 191.3125 198.972656 191.824219 198.460938 192.46875 198.460938 L 225.425781 198.460938 C 226.070312 198.460938 226.585938 198.992188 226.585938 199.617188 Z M 226.585938 199.617188 " fill-opacity="1" fill-rule="nonzero"/><path fill="#ffffff" d="M 217.691406 200.28125 C 217.234375 199.828125 217.234375 199.105469 217.691406 198.652344 L 222.515625 193.828125 C 222.972656 193.375 223.695312 193.375 224.152344 193.828125 C 224.609375 194.285156 224.609375 195.007812 224.152344 195.460938 L 219.324219 200.28125 C 218.867188 200.738281 218.144531 200.738281 217.691406 200.28125 Z M 217.691406 200.28125 " fill-opacity="1" fill-rule="nonzero"/><path fill="#ffffff" d="M 217.691406 198.839844 C 217.234375 199.296875 217.234375 200.015625 217.691406 200.472656 L 222.515625 205.292969 C 222.972656 205.75 223.695312 205.75 224.152344 205.292969 C 224.609375 204.839844 224.609375 204.117188 224.152344 203.660156 L 219.324219 198.839844 C 218.867188 198.386719 218.144531 198.386719 217.691406 198.839844 Z M 217.691406 198.839844 " fill-opacity="1" fill-rule="nonzero"/><path fill="#ffffff" d="M 211.894531 200.28125 C 211.4375 199.828125 211.4375 199.105469 211.894531 198.652344 L 216.71875 193.828125 C 217.175781 193.375 217.898438 193.375 218.355469 193.828125 C 218.8125 194.285156 218.8125 195.007812 218.355469 195.460938 L 213.527344 200.28125 C 213.089844 200.738281 212.347656 200.738281 211.894531 200.28125 Z M 211.894531 200.28125 " fill-opacity="1" fill-rule="nonzero"/><path fill="#ffffff" d="M 211.894531 198.839844 C 211.4375 199.296875 211.4375 200.015625 211.894531 200.472656 L 216.71875 205.292969 C 217.175781 205.75 217.898438 205.75 218.355469 205.292969 C 218.8125 204.839844 218.8125 204.117188 218.355469 203.660156 L 213.527344 198.839844 C 213.089844 198.386719 212.347656 198.386719 211.894531 198.839844 Z M 211.894531 198.839844 " fill-opacity="1" fill-rule="nonzero"/><path fill="#ffffff" d="M 216.816406 224.292969 C 216.359375 224.75 215.636719 224.75 215.179688 224.292969 L 191.878906 201.023438 C 191.425781 200.566406 191.425781 199.847656 191.878906 199.390625 C 192.335938 198.933594 193.058594 198.933594 193.515625 199.390625 L 216.816406 222.660156 C 217.253906 223.117188 217.253906 223.839844 216.816406 224.292969 Z M 216.816406 224.292969 " fill-opacity="1" fill-rule="nonzero"/><path fill="#ffffff" d="M 210.050781 218.484375 C 210.050781 217.839844 210.5625 217.328125 211.207031 217.328125 L 218.03125 217.328125 C 218.679688 217.328125 219.191406 217.839844 219.191406 218.484375 C 219.191406 219.132812 218.679688 219.644531 218.03125 219.644531 L 211.207031 219.644531 C 210.582031 219.644531 210.050781 219.113281 210.050781 218.484375 Z M 210.050781 218.484375 " fill-opacity="1" fill-rule="nonzero"/><path fill="#ffffff" d="M 211.074219 217.460938 C 210.429688 217.460938 209.917969 217.972656 209.917969 218.617188 L 209.917969 225.433594 C 209.917969 226.078125 210.429688 226.589844 211.074219 226.589844 C 211.722656 226.589844 212.234375 226.078125 212.234375 225.433594 L 212.234375 218.617188 C 212.234375 217.972656 211.722656 217.460938 211.074219 217.460938 Z M 211.074219 217.460938 " fill-opacity="1" fill-rule="nonzero"/><path fill="#ffffff" d="M 205.964844 214.386719 C 205.964844 213.742188 206.476562 213.226562 207.121094 213.226562 L 213.945312 213.226562 C 214.59375 213.226562 215.105469 213.742188 215.105469 214.386719 C 215.105469 215.03125 214.59375 215.542969 213.945312 215.542969 L 207.121094 215.542969 C 206.476562 215.542969 205.964844 215.03125 205.964844 214.386719 Z M 205.964844 214.386719 " fill-opacity="1" fill-rule="nonzero"/><path fill="#ffffff" d="M 206.988281 213.359375 C 206.34375 213.359375 205.832031 213.875 205.832031 214.519531 L 205.832031 221.332031 C 205.832031 221.980469 206.34375 222.492188 206.988281 222.492188 C 207.636719 222.492188 208.148438 221.980469 208.148438 221.332031 L 208.148438 214.519531 C 208.128906 213.890625 207.617188 213.359375 206.988281 213.359375 Z M 206.988281 213.359375 " fill-opacity="1" fill-rule="nonzero"/><path fill="#ffffff" d="M 216.816406 174.203125 C 216.359375 173.746094 215.636719 173.746094 215.179688 174.203125 L 191.878906 197.472656 C 191.425781 197.929688 191.425781 198.652344 191.878906 199.105469 C 192.335938 199.5625 193.058594 199.5625 193.515625 199.105469 L 216.816406 175.835938 C 217.253906 175.378906 217.253906 174.65625 216.816406 174.203125 Z M 216.816406 174.203125 " fill-opacity="1" fill-rule="nonzero"/><path fill="#ffffff" d="M 210.050781 180.011719 C 210.050781 180.65625 210.5625 181.167969 211.207031 181.167969 L 218.03125 181.167969 C 218.679688 181.167969 219.191406 180.65625 219.191406 180.011719 C 219.191406 179.367188 218.679688 178.851562 218.03125 178.851562 L 211.207031 178.851562 C 210.582031 178.851562 210.050781 179.382812 210.050781 180.011719 Z M 210.050781 180.011719 " fill-opacity="1" fill-rule="nonzero"/><path fill="#ffffff" d="M 211.074219 181.035156 C 210.429688 181.035156 209.917969 180.523438 209.917969 179.878906 L 209.917969 173.0625 C 209.917969 172.417969 210.429688 171.90625 211.074219 171.90625 C 211.722656 171.90625 212.234375 172.417969 212.234375 173.0625 L 212.234375 179.878906 C 212.234375 180.523438 211.722656 181.035156 211.074219 181.035156 Z M 211.074219 181.035156 " fill-opacity="1" fill-rule="nonzero"/><path fill="#ffffff" d="M 205.964844 184.109375 C 205.964844 184.757812 206.476562 185.269531 207.121094 185.269531 L 213.945312 185.269531 C 214.59375 185.269531 215.105469 184.757812 215.105469 184.109375 C 215.105469 183.464844 214.59375 182.953125 213.945312 182.953125 L 207.121094 182.953125 C 206.476562 182.953125 205.964844 183.464844 205.964844 184.109375 Z M 205.964844 184.109375 " fill-opacity="1" fill-rule="nonzero"/><path fill="#ffffff" d="M 206.988281 185.136719 C 206.34375 185.136719 205.832031 184.625 205.832031 183.976562 L 205.832031 177.164062 C 205.832031 176.519531 206.34375 176.003906 206.988281 176.003906 C 207.636719 176.003906 208.148438 176.519531 208.148438 177.164062 L 208.148438 183.976562 C 208.128906 184.605469 207.617188 185.136719 206.988281 185.136719 Z M 206.988281 185.136719 " fill-opacity="1" fill-rule="nonzero"/><path fill="#2576a7" d="M 307.183594 134.703125 L 289.472656 124.925781 L 289.472656 100.59375 L 307.183594 100.59375 Z M 307.183594 134.703125 " fill-opacity="1" fill-rule="nonzero"/><path fill="#2576a7" d="M 285.347656 96.492188 L 311.289062 96.492188 L 311.289062 102.1875 L 285.347656 102.1875 Z M 285.347656 96.492188 " fill-opacity="1" fill-rule="nonzero"/><path fill="#dc1f26" d="M 53.238281 134.703125 L 70.949219 124.925781 L 70.949219 100.59375 L 53.238281 100.59375 Z M 53.238281 134.703125 " fill-opacity="1" fill-rule="nonzero"/><path fill="#dc1f26" d="M 75.058594 102.164062 L 49.117188 102.164062 L 49.117188 96.46875 L 75.058594 96.46875 Z M 75.058594 102.164062 " fill-opacity="1" fill-rule="nonzero"/></svg>